# xmcd CD database file
#
# Track frame offsets:
#	150
#	2574
#	49438
#	87673
#	114438
#	170719
#	201178
#	225405
#	258642
#	303352
#
# Disc length: 4700 seconds
#
# Revision: 1
# Processed by: cddbd v1.5.2PL0 Copyright (c) Steve Scherf et al.
# Submitted via: CDex 1.51
#
DISCID=84125a0a
DTITLE=Dolores Ashcroft Nowicki - 06 - Beginning with Ritual
DYEAR=2006
DGENRE=New Age
TTITLE0=Introduction
TTITLE1=Behaviour in a temple
TTITLE2=Opening and closing rituals
TTITLE3=Sealing the temple
TTITLE4=The elemental kings
TTITLE5=Elements of ritual
TTITLE6=Rose Cross ritual for protection
TTITLE7=Paths of the Tree - 23 to 21
TTITLE8=Paths of the Tree - 20 through 16
TTITLE9=Paths of the Tree - 15 through 11
EXTD=YEAR: 2006
EXTT0=
EXTT1=
EXTT2=
EXTT3=
EXTT4=
EXTT5=
EXTT6=
EXTT7=
EXTT8=
EXTT9=
PLAYORDER=
